<svg xmlns="http://www.w3.org/2000/svg" width="1440" height="1080" viewBox="0 0 1440 1080">
  <defs>
    <linearGradient id="bg" x1="0" y1="0" x2="0" y2="1">
      <stop offset="0" stop-color="#f8fafc"/>
      <stop offset="1" stop-color="#f4f6f9"/>
    </linearGradient>
    <filter id="shadow" x="-20%" y="-20%" width="140%" height="140%">
      <feDropShadow dx="0" dy="18" stdDeviation="18" flood-color="#0f172a" flood-opacity=".08"/>
    </filter>
  </defs>
  <rect width="1440" height="1080" fill="url(#bg)"/>
  <rect width="1440" height="88" fill="#fff" opacity=".94"/>
  <line x1="0" y1="88" x2="1440" y2="88" stroke="#e5e7eb"/>
  <text x="24" y="36" font-family="Microsoft YaHei, sans-serif" font-size="21" font-weight="800" fill="#111827">设计工单系统 PC端</text>
  <text x="24" y="62" font-family="Microsoft YaHei, sans-serif" font-size="12" fill="#6b7280">当前为 PC 端页面，正在查看：需求端。</text>
  <rect x="1070" y="38" width="78" height="38" rx="19" fill="#fff7ed" stroke="#f3c6ad"/>
  <text x="1090" y="62" font-family="Microsoft YaHei, sans-serif" font-size="13" font-weight="700" fill="#9a3412">需求端</text>
  <rect x="1158" y="38" width="78" height="38" rx="19" fill="#fff" stroke="#e5e7eb"/>
  <text x="1178" y="62" font-family="Microsoft YaHei, sans-serif" font-size="13" font-weight="700" fill="#111827">设计端</text>

  <rect x="16" y="112" width="1030" height="190" rx="24" fill="#fff" stroke="#e5e7eb" filter="url(#shadow)"/>
  <text x="36" y="152" font-family="Microsoft YaHei, sans-serif" font-size="20" font-weight="800" fill="#111827">PC端工单详情</text>
  <text x="36" y="178" font-family="Microsoft YaHei, sans-serif" font-size="13" fill="#6b7280">PC-DES-20260419-001 · 待确认设计文件 · 当前使用端：需求端</text>
  <rect x="846" y="132" width="78" height="38" rx="19" fill="#fff" stroke="#e5e7eb"/>
  <text x="865" y="156" font-family="Microsoft YaHei, sans-serif" font-size="13" font-weight="700" fill="#111827">列表页</text>
  <rect x="934" y="132" width="78" height="38" rx="19" fill="#fff7ed" stroke="#f3c6ad"/>
  <text x="953" y="156" font-family="Microsoft YaHei, sans-serif" font-size="13" font-weight="700" fill="#9a3412">详情页</text>
  <g font-family="Microsoft YaHei, sans-serif" font-size="13" font-weight="700">
    <rect x="36" y="214" width="88" height="38" rx="19" fill="#d1fae5" stroke="#a7f3d0"/><text x="55" y="238" fill="#047857">提交需求</text>
    <rect x="134" y="214" width="88" height="38" rx="19" fill="#d1fae5" stroke="#a7f3d0"/><text x="153" y="238" fill="#047857">确认需求</text>
    <rect x="232" y="214" width="88" height="38" rx="19" fill="#d1fae5" stroke="#a7f3d0"/><text x="251" y="238" fill="#047857">确认时间</text>
    <rect x="330" y="214" width="88" height="38" rx="19" fill="#fff7ed" stroke="#f3c6ad"/><text x="349" y="238" fill="#9a3412">上传文件</text>
    <rect x="428" y="214" width="88" height="38" rx="19" fill="#fff" stroke="#e5e7eb"/><text x="447" y="238" fill="#111827">关闭工单</text>
  </g>
  <rect x="36" y="268" width="132" height="30" rx="15" fill="#fff7ed"/>
  <text x="55" y="288" font-family="Microsoft YaHei, sans-serif" font-size="12" font-weight="800" fill="#9a3412">当前：PC端 / 需求端</text>

  <rect x="16" y="320" width="1030" height="170" rx="24" fill="#fff" stroke="#e5e7eb" filter="url(#shadow)"/>
  <text x="36" y="358" font-family="Microsoft YaHei, sans-serif" font-size="18" font-weight="800" fill="#111827">基础信息</text>
  <g font-family="Microsoft YaHei, sans-serif">
    <rect x="36" y="378" width="230" height="74" rx="18" fill="#f8fafc" stroke="#e5e7eb"/><text x="54" y="404" font-size="12" fill="#6b7280">工单编号</text><text x="54" y="430" font-size="15" font-weight="800" fill="#111827">PC-DES-20260419-001</text>
    <rect x="280" y="378" width="230" height="74" rx="18" fill="#f8fafc" stroke="#e5e7eb"/><text x="298" y="404" font-size="12" fill="#6b7280">当前状态</text><text x="298" y="430" font-size="15" font-weight="800" fill="#111827">待需求端确认文件</text>
    <rect x="524" y="378" width="230" height="74" rx="18" fill="#f8fafc" stroke="#e5e7eb"/><text x="542" y="404" font-size="12" fill="#6b7280">需求端</text><text x="542" y="430" font-size="15" font-weight="800" fill="#111827">市场部 / 李晓</text>
    <rect x="768" y="378" width="230" height="74" rx="18" fill="#f8fafc" stroke="#e5e7eb"/><text x="786" y="404" font-size="12" fill="#6b7280">设计端</text><text x="786" y="430" font-size="15" font-weight="800" fill="#111827">品牌设计组 / 陈可</text>
  </g>

  <rect x="16" y="508" width="1030" height="470" rx="24" fill="#fff" stroke="#e5e7eb" filter="url(#shadow)"/>
  <text x="36" y="548" font-family="Microsoft YaHei, sans-serif" font-size="18" font-weight="800" fill="#111827">确认设计文件</text>
  <text x="36" y="574" font-family="Microsoft YaHei, sans-serif" font-size="12" fill="#6b7280">需求端确认设计文件，确认无误后关闭工单。</text>
  <g font-family="Microsoft YaHei, sans-serif">
    <text x="36" y="612" font-size="12" font-weight="700" fill="#6b7280">需求标题</text>
    <rect x="36" y="624" width="470" height="46" rx="14" fill="#fff" stroke="#e5e7eb"/><text x="52" y="653" font-size="14" fill="#111827">五一活动海报设计</text>
    <text x="526" y="612" font-size="12" font-weight="700" fill="#6b7280">需求端</text>
    <rect x="526" y="624" width="470" height="46" rx="14" fill="#fff" stroke="#e5e7eb"/><text x="542" y="653" font-size="14" fill="#111827">市场部 / 李晓</text>
    <text x="36" y="704" font-size="12" font-weight="700" fill="#6b7280">需求说明</text>
    <rect x="36" y="716" width="960" height="120" rx="14" fill="#fff" stroke="#e5e7eb"/>
    <text x="52" y="748" font-size="14" fill="#111827">需产出五一活动主海报 1 张、活动长图 1 张，用于公众号和朋友圈投放。</text>
    <rect x="36" y="876" width="126" height="42" rx="21" fill="#fff" stroke="#e5e7eb"/><text x="60" y="902" font-size="13" font-weight="800" fill="#111827">确认设计文件</text>
    <rect x="176" y="876" width="110" height="42" rx="21" fill="#c2410c"/><text x="207" y="902" font-size="13" font-weight="800" fill="#fff">关闭工单</text>
  </g>

  <rect x="1064" y="112" width="360" height="370" rx="24" fill="#fff" stroke="#e5e7eb" filter="url(#shadow)"/>
  <text x="1086" y="152" font-family="Microsoft YaHei, sans-serif" font-size="18" font-weight="800" fill="#111827">设计文件</text>
  <rect x="1086" y="176" width="316" height="74" rx="16" fill="#fff" stroke="#e5e7eb"/>
  <text x="1102" y="206" font-family="Microsoft YaHei, sans-serif" font-size="14" font-weight="800" fill="#111827">五一活动海报_预览.jpg</text>
  <text x="1102" y="230" font-family="Microsoft YaHei, sans-serif" font-size="12" fill="#6b7280">预览图 · 客户确认用预览图</text>
  <rect x="1086" y="264" width="316" height="74" rx="16" fill="#fff" stroke="#e5e7eb"/>
  <text x="1102" y="294" font-family="Microsoft YaHei, sans-serif" font-size="14" font-weight="800" fill="#111827">五一活动海报_源文件.psd</text>
  <text x="1102" y="318" font-family="Microsoft YaHei, sans-serif" font-size="12" fill="#6b7280">源文件 · 可继续编辑的源文件</text>

  <rect x="1064" y="500" width="360" height="478" rx="24" fill="#fff" stroke="#e5e7eb" filter="url(#shadow)"/>
  <text x="1086" y="540" font-family="Microsoft YaHei, sans-serif" font-size="18" font-weight="800" fill="#111827">处理记录</text>
  <g font-family="Microsoft YaHei, sans-serif" font-size="12" fill="#6b7280">
    <rect x="1086" y="564" width="316" height="58" rx="14" fill="#fff" stroke="#e5e7eb"/><text x="1102" y="598">04-19 09:30 需求端提交需求</text>
    <rect x="1086" y="634" width="316" height="58" rx="14" fill="#fff" stroke="#e5e7eb"/><text x="1102" y="668">04-19 10:20 设计端确认需求</text>
    <rect x="1086" y="704" width="316" height="58" rx="14" fill="#fff" stroke="#e5e7eb"/><text x="1102" y="738">04-19 10:35 设计端反馈时间</text>
    <rect x="1086" y="774" width="316" height="58" rx="14" fill="#fff" stroke="#e5e7eb"/><text x="1102" y="808">04-21 17:36 设计端上传文件</text>
  </g>
</svg>
