<svg xmlns="http://www.w3.org/2000/svg" width="430" height="1040" viewBox="0 0 430 1040">
  <defs>
    <linearGradient id="bg" x1="0" y1="0" x2="0" y2="1">
      <stop offset="0" stop-color="#eef2f7"/>
      <stop offset="1" stop-color="#f5f7fa"/>
    </linearGradient>
  </defs>
  <rect width="430" height="1040" fill="url(#bg)"/>
  <rect x="0" y="0" width="430" height="158" fill="#fff" opacity=".94"/>
  <line x1="0" y1="158" x2="430" y2="158" stroke="#d9e0ea"/>
  <text x="16" y="26" font-family="Microsoft YaHei, sans-serif" font-size="12" fill="#6b7280">设计工单系统</text>
  <text x="16" y="54" font-family="Microsoft YaHei, sans-serif" font-size="20" font-weight="900" fill="#111827">小程序端</text>
  <text x="16" y="80" font-family="Microsoft YaHei, sans-serif" font-size="12" fill="#6b7280">当前为小程序端页面，正在查看：设计端。</text>
  <text x="16" y="108" font-family="Microsoft YaHei, sans-serif" font-size="12" font-weight="800" fill="#6b7280">使用端</text>
  <rect x="16" y="116" width="78" height="34" rx="17" fill="#fff" stroke="#d9e0ea"/>
  <text x="36" y="138" font-family="Microsoft YaHei, sans-serif" font-size="13" font-weight="800" fill="#111827">需求端</text>
  <rect x="102" y="116" width="78" height="34" rx="17" fill="#fff7ed" stroke="#f3c6ad"/>
  <text x="122" y="138" font-family="Microsoft YaHei, sans-serif" font-size="13" font-weight="800" fill="#9a3412">设计端</text>
  <rect x="16" y="170" width="78" height="34" rx="17" fill="#fff" stroke="#d9e0ea"/>
  <text x="36" y="192" font-family="Microsoft YaHei, sans-serif" font-size="13" font-weight="800" fill="#111827">列表页</text>
  <rect x="102" y="170" width="78" height="34" rx="17" fill="#fff7ed" stroke="#f3c6ad"/>
  <text x="122" y="192" font-family="Microsoft YaHei, sans-serif" font-size="13" font-weight="800" fill="#9a3412">详情页</text>

  <rect x="14" y="224" width="402" height="110" rx="22" fill="#fff" opacity=".94" stroke="#d9e0ea"/>
  <text x="30" y="258" font-family="Microsoft YaHei, sans-serif" font-size="13" fill="#6b7280">小程序端 / 设计端</text>
  <text x="30" y="286" font-family="Microsoft YaHei, sans-serif" font-size="17" font-weight="900" fill="#111827">门店开业展架设计</text>
  <text x="30" y="314" font-family="Microsoft YaHei, sans-serif" font-size="13" fill="#6b7280">MP-DES-20260419-001 · 待设计端确认</text>

  <rect x="14" y="350" width="402" height="166" rx="22" fill="#fff" opacity=".94" stroke="#d9e0ea"/>
  <text x="30" y="384" font-family="Microsoft YaHei, sans-serif" font-size="17" font-weight="900" fill="#111827">当前进度</text>
  <g font-family="Microsoft YaHei, sans-serif" font-size="13" font-weight="800">
    <rect x="30" y="402" width="370" height="34" rx="16" fill="#fff7ed" stroke="#f3c6ad"/><text x="48" y="424" fill="#9a3412">提交需求</text>
    <rect x="30" y="444" width="370" height="34" rx="16" fill="#fff" stroke="#d9e0ea"/><text x="48" y="466" fill="#111827">确认需求</text>
    <rect x="30" y="486" width="370" height="34" rx="16" fill="#fff" stroke="#d9e0ea"/><text x="48" y="508" fill="#111827">确认时间</text>
  </g>

  <rect x="14" y="532" width="402" height="312" rx="22" fill="#fff" opacity=".94" stroke="#d9e0ea"/>
  <text x="30" y="566" font-family="Microsoft YaHei, sans-serif" font-size="17" font-weight="900" fill="#111827">确认需求</text>
  <text x="30" y="592" font-family="Microsoft YaHei, sans-serif" font-size="13" fill="#6b7280">设计端确认需求后，进入完成时间确认环节。</text>
  <g font-family="Microsoft YaHei, sans-serif">
    <text x="30" y="626" font-size="12" font-weight="700" fill="#6b7280">需求标题</text>
    <rect x="30" y="636" width="370" height="42" rx="14" fill="#fff" stroke="#d9e0ea"/><text x="44" y="662" font-size="13" fill="#111827">门店开业展架设计</text>
    <text x="30" y="708" font-size="12" font-weight="700" fill="#6b7280">需求端</text>
    <rect x="30" y="718" width="370" height="42" rx="14" fill="#fff" stroke="#d9e0ea"/><text x="44" y="744" font-size="13" fill="#111827">渠道部 / 何洋</text>
    <text x="30" y="790" font-size="12" font-weight="700" fill="#6b7280">需求说明</text>
    <text x="30" y="814" font-size="13" fill="#111827">门店开业需要一套展架和吊旗设计。</text>
  </g>

  <rect x="14" y="862" width="402" height="72" rx="22" fill="#fff" opacity=".94" stroke="#d9e0ea"/>
  <text x="30" y="896" font-family="Microsoft YaHei, sans-serif" font-size="17" font-weight="900" fill="#111827">设计文件</text>
  <text x="30" y="922" font-family="Microsoft YaHei, sans-serif" font-size="13" fill="#6b7280">当前暂无已上传设计文件。</text>

  <rect x="14" y="950" width="402" height="72" rx="22" fill="#fff" opacity=".94" stroke="#d9e0ea"/>
  <text x="30" y="984" font-family="Microsoft YaHei, sans-serif" font-size="17" font-weight="900" fill="#111827">处理记录</text>
  <text x="30" y="1010" font-family="Microsoft YaHei, sans-serif" font-size="13" fill="#6b7280">04-19 14:10 需求端提交需求</text>
</svg>
